Coordinates
version=1
nRows=8
nColumns=33
inDegrees=yes

Units are S.I. units (second, meters, Newtons, ...)
Angles are in degrees.

endheader
time	ground_thorax_rot_x	ground_thorax_rot_y	ground_thorax_rot_z	ground_thorax_tx	ground_thorax_ty	ground_thorax_tz	clav_prot_r	clav_elev_r	scapula_abduction_r	scapula_elevation_r	scapula_upward_rot_r	scapula_winging_r	shoulder_elv_r	plane_of_elev_r	axial_rot_r	elbow_flexion_r	pro_sup_r	wrist_flex_r	wrist_dev_r	clav_prot_l	clav_elev_l	scapula_abduction_l	scapula_elevation_l	scapula_upward_rot_l	scapula_winging_l	shoulder_elv_l	plane_of_elev_l	axial_rot_l	elbow_flexion_l	pro_sup_l	wrist_flex_l	wrist_dev_l
      3.46000000	    -38.51598864	     -7.69568094	     14.32978679	   -211.80624849	    840.47906579	      3.10064543	     -1.68368981	    -45.00000000	     41.10133794	    -45.00000000	      9.12295701	  -3709.82332755	  -1008.28191820	     23.74265960	   -179.99999979	   1806.88676189	   -142.71285098	     18.06138252	     14.16643389	     16.13984153	     38.19663984	    -39.89636509	    -45.00000000	    -43.51234214	    446.05140282	   -814.28389384	    135.92737815	    165.80204797	    370.59521197	     -2.20989681	      6.98138932	    -19.83388165
      3.47000000	    -38.49354076	     -7.67141055	     14.35084625	   -213.55437060	    841.22148042	      3.14974830	     -1.61549402	    -45.00000000	     40.94987013	    -45.00000000	      8.66007625	  -3709.80101003	  -1008.16268382	     23.77364861	   -179.99999979	   1806.94193069	   -143.22689286	     18.13086728	     14.17102557	     16.08751250	     38.12750122	    -39.79432027	    -45.00000000	    -43.73873107	    446.14077909	   -814.24266560	    135.96807715	    165.49384211	    370.61168465	     -2.13596478	      6.80495745	    -19.83219088
      3.48000000	    -38.44248675	     -7.60399341	     14.36242145	   -215.28246416	    841.92103399	      3.20987902	     -1.43300284	    -45.00000000	     40.77877751	    -45.00000000	      7.86918137	  -3709.74049164	  -1008.09718988	     23.81818739	   -179.99999979	   1806.79524567	   -143.84965373	     18.25929376	     14.16219591	     16.13923010	     37.86669028	    -39.78119985	    -45.00000000	    -44.50504876	    446.01087222	   -814.00777047	    135.99041156	    165.87349907	    370.61267548	     -2.08607888	      6.51018565	    -19.79919567
      3.49000000	    -38.40674533	     -7.59517305	     14.42133844	   -216.98583329	    842.57541060	      3.28271216	     -1.35977171	    -45.00000000	     40.60759015	    -45.00000000	      7.25034619	  -3709.70022139	  -1007.99405249	     23.83233995	   -179.99999979	   1806.80000118	   -144.49589517	     18.33331177	     14.15611016	     16.07338905	     37.82149922	    -39.71189120	    -45.00000000	    -45.00000000	    445.97347959	   -813.88253806	    136.05936018	    165.96271499	    370.67289331	     -1.81197445	      6.43061714	    -19.78269589
      3.50000000	    -38.45325829	     -7.59956989	     14.40520540	   -218.66362393	    843.18534363	      3.36725619	     -1.40346410	    -45.00000000	     40.51752500	    -45.00000000	      7.18431163	  -3709.75518170	  -1007.85814370	     23.84352852	   -179.99999979	   1806.99178317	   -144.99845239	     18.33425085	     14.16599114	     15.95402195	     37.88672590	    -39.54262931	    -45.00000000	    -44.66573538	    446.29302327	   -814.06328450	    136.11555987	    164.82792375	    370.61475842	     -1.31437919	      6.19025619	    -19.79123755
      3.51000000	    -38.41372957	     -7.63212315	     14.49108424	   -220.31666089	    843.75293907	      3.46276724	     -1.32931591	    -45.00000000	     40.38739530	    -45.00000000	      6.72960638	  -3709.76687188	  -1007.76176853	     23.87245153	   -179.99999979	   1807.04840237	   -145.59428952	     18.37666077	     14.16677894	     15.92104864	     37.80407599	    -39.50041142	    -45.00000000	    -45.00000000	    446.40686847	   -814.06829842	    136.18406281	    164.53224438	    370.67286719	     -0.86645277	      5.90378059	    -19.78389902
      3.52000000	    -38.45133477	     -7.47465728	     14.31280853	   -221.94871314	    844.28170345	      3.56883174	     -1.24398375	    -45.00000000	     40.19606253	    -45.00000000	      5.99413781	  -3709.66569099	  -1007.79284785	     23.90472989	   -179.99999979	   1806.95681769	   -146.34440730	     18.48179080	     14.16449536	     15.84635537	     37.74333717	    -39.27364471	    -45.00000000	    -45.00000000	    446.19515280	   -813.98490468	    136.35943254	    164.83471781	    370.71216557	     -0.32360399	      5.77540488	    -19.74366942
      3.53000000	    -38.46349818	     -7.66657712	     14.54565143	   -223.55779776	    844.77395363	      3.68488461	     -1.31852478	    -45.00000000	     40.15540540	    -45.00000000	      6.10689673	  -3709.81041971	  -1007.53586767	     23.89021283	   -179.99999979	   1807.29498222	   -146.92073663	     18.40014531	     14.18276306	     15.69762896	     37.91191958	    -39.25705814	    -45.00000000	    -45.00000000	    446.69435087	   -814.22664667	    136.41132033	    163.39389266	    370.71840997	      0.41914005	      5.50781563	    -19.75873159
